<?xml version="1.0" encoding="UTF-8" standalone="no"?>
<svg 
shape-rendering="crispEdges" 
height="200" 
width="200" 
viewBox="0 0 29 29" 
xmlns:svg="http://www.w3.org/2000/svg"
xmlns="http://www.w3.org/2000/svg"
>
  <path fill="#FFFFFF" d="M0,0 h29v29H0z"></path>
  <path fill="#000000" d="M0 0h7v1H0zM9 0h2v1H9zM12 0h1v1H12zM14 0h2v1H14zM17 0h3v1H17zM22,0 h7v1H22zM0 1h1v1H0zM6 1h1v1H6zM8 1h1v1H8zM11 1h1v1H11zM14 1h2v1H14zM22 1h1v1H22zM28,1 h1v1H28zM0 2h1v1H0zM2 2h3v1H2zM6 2h1v1H6zM8 2h4v1H8zM14 2h2v1H14zM17 2h1v1H17zM19 2h1v1H19zM22 2h1v1H22zM24 2h3v1H24zM28,2 h1v1H28zM0 3h1v1H0zM2 3h3v1H2zM6 3h1v1H6zM9 3h4v1H9zM15 3h1v1H15zM18 3h1v1H18zM22 3h1v1H22zM24 3h3v1H24zM28,3 h1v1H28zM0 4h1v1H0zM2 4h3v1H2zM6 4h1v1H6zM8 4h1v1H8zM11 4h1v1H11zM15 4h4v1H15zM22 4h1v1H22zM24 4h3v1H24zM28,4 h1v1H28zM0 5h1v1H0zM6 5h1v1H6zM8 5h2v1H8zM13 5h3v1H13zM18 5h3v1H18zM22 5h1v1H22zM28,5 h1v1H28zM0 6h7v1H0zM8 6h1v1H8zM10 6h1v1H10zM12 6h1v1H12zM14 6h1v1H14zM16 6h1v1H16zM18 6h1v1H18zM20 6h1v1H20zM22,6 h7v1H22zM8 7h2v1H8zM12 7h1v1H12zM15 7h1v1H15zM17 7h1v1H17zM19 7h2v1H19zM0 8h2v1H0zM3 8h1v1H3zM6 8h2v1H6zM10 8h5v1H10zM16 8h1v1H16zM20 8h1v1H20zM22 8h3v1H22zM26 8h2v1H26zM0 9h2v1H0zM3 9h1v1H3zM5 9h1v1H5zM10 9h1v1H10zM12 9h1v1H12zM14 9h1v1H14zM16 9h1v1H16zM18 9h1v1H18zM22 9h2v1H22zM25 9h1v1H25zM27,9 h2v1H27zM1 10h2v1H1zM6 10h5v1H6zM14 10h1v1H14zM16 10h1v1H16zM18 10h4v1H18zM23 10h2v1H23zM27 10h1v1H27zM0 11h1v1H0zM3 11h1v1H3zM5 11h1v1H5zM7 11h2v1H7zM12 11h4v1H12zM21 11h2v1H21zM26 11h2v1H26zM0 12h2v1H0zM4 12h1v1H4zM6 12h1v1H6zM11 12h3v1H11zM17 12h2v1H17zM20 12h4v1H20zM27,12 h2v1H27zM3 13h3v1H3zM8 13h1v1H8zM10 13h1v1H10zM12 13h1v1H12zM14 13h1v1H14zM17 13h4v1H17zM25 13h2v1H25zM0 14h10v1H0zM11 14h1v1H11zM13 14h2v1H13zM17 14h1v1H17zM22 14h1v1H22zM24,14 h5v1H24zM1 15h1v1H1zM3 15h1v1H3zM7 15h1v1H7zM10 15h4v1H10zM15 15h1v1H15zM17 15h1v1H17zM19 15h3v1H19zM23 15h1v1H23zM0 16h1v1H0zM2 16h1v1H2zM4 16h4v1H4zM9 16h2v1H9zM15 16h3v1H15zM20 16h2v1H20zM23 16h1v1H23zM25 16h1v1H25zM28,16 h1v1H28zM2 17h1v1H2zM9 17h3v1H9zM13 17h1v1H13zM17 17h1v1H17zM21 17h2v1H21zM25 17h1v1H25zM27,17 h2v1H27zM0 18h1v1H0zM4 18h1v1H4zM6 18h1v1H6zM8 18h3v1H8zM12 18h1v1H12zM14 18h1v1H14zM16 18h3v1H16zM22 18h2v1H22zM25,18 h4v1H25zM4 19h2v1H4zM7 19h1v1H7zM9 19h2v1H9zM17 19h2v1H17zM23 19h1v1H23zM25 19h1v1H25zM27 19h1v1H27zM0 20h1v1H0zM2 20h1v1H2zM4 20h4v1H4zM9 20h1v1H9zM11 20h1v1H11zM13 20h2v1H13zM20 20h5v1H20zM26 20h1v1H26zM28,20 h1v1H28zM8 21h1v1H8zM10 21h1v1H10zM14 21h1v1H14zM17 21h4v1H17zM24 21h1v1H24zM26,21 h3v1H26zM0 22h7v1H0zM8 22h1v1H8zM14 22h1v1H14zM20 22h1v1H20zM22 22h1v1H22zM24 22h2v1H24zM27 22h1v1H27zM0 23h1v1H0zM6 23h1v1H6zM9 23h2v1H9zM12 23h5v1H12zM20 23h1v1H20zM24,23 h5v1H24zM0 24h1v1H0zM2 24h3v1H2zM6 24h1v1H6zM12 24h2v1H12zM17 24h1v1H17zM20 24h6v1H20zM28,24 h1v1H28zM0 25h1v1H0zM2 25h3v1H2zM6 25h1v1H6zM8 25h1v1H8zM12 25h1v1H12zM16 25h3v1H16zM22 25h3v1H22zM26 25h1v1H26zM0 26h1v1H0zM2 26h3v1H2zM6 26h1v1H6zM10 26h3v1H10zM14 26h1v1H14zM16 26h1v1H16zM18 26h1v1H18zM24 26h1v1H24zM26 26h1v1H26zM28,26 h1v1H28zM0 27h1v1H0zM6 27h1v1H6zM8 27h1v1H8zM11 27h1v1H11zM13 27h2v1H13zM17 27h1v1H17zM20 27h2v1H20zM23 27h2v1H23zM27 27h1v1H27zM0 28h7v1H0zM8 28h1v1H8zM10 28h2v1H10zM16 28h2v1H16zM19 28h4v1H19zM24 28h2v1H24zM27 28h1v1H27z">  </path>
</svg>
